<?xml version="1.0" encoding="UTF-8"?>
<svg version="1.1" xmlns="http://www.w3.org/2000/svg" width="360" height="360" fill="#fffff">
<path d="M0 0 C0.66 0 1.32 0 2 0 C5 4.38461538 5 4.38461538 5 7 C5.99 7.495 5.99 7.495 7 8 C8.2890625 9.5234375 8.2890625 9.5234375 9.625 11.375 C10.07101563 11.98085937 10.51703125 12.58671875 10.9765625 13.2109375 C12 15 12 15 12 18 C12.66 18.33 13.32 18.66 14 19 C14.68132451 20.66072849 15.34742127 22.327767 16 24 C16.99 24.99 16.99 24.99 18 26 C21 31.42307692 21 31.42307692 21 35 C21.66 35 22.32 35 23 35 C25.95047835 39.61012242 27.5497272 42.36529617 27 48 C26.34 48 25.68 48 25 48 C24.6596875 49.2065625 24.6596875 49.2065625 24.3125 50.4375 C22.66368412 54.91285739 20.39455588 58.88721318 18 63 C15.00674001 60.27588872 14.24996519 57.83322658 13 54 C12.34 53.67 11.68 53.34 11 53 C10.67 52.01 10.34 51.02 10 50 C9.525625 49.525625 9.05125 49.05125 8.5625 48.5625 C6.81375881 46.81375881 6.04977428 45.23077034 5 43 C4.01120795 41.32665961 3.01351664 39.65848177 2 38 C-1.70196942 39.23398981 -2.31217164 40.89426616 -4.1328125 44.2109375 C-5.12510056 46.15991346 -5.12510056 46.15991346 -6 49 C-7 50 -8 51 -9 52 C-10.05021103 53.84971696 -10.05021103 53.84971696 -11 56 C-12.8495096 59.77943265 -14.80612419 63.4100214 -17 67 C-17.33 67.66 -17.66 68.32 -18 69 C-18.66 69 -19.32 69 -20 69 C-20.37125 70.2375 -20.37125 70.2375 -20.75 71.5 C-22.80362433 77.25014812 -25.53455418 82.95935153 -29 88 C-29.66 88 -30.32 88 -31 88 C-31.185625 89.4540625 -31.185625 89.4540625 -31.375 90.9375 C-31.58125 91.948125 -31.7875 92.95875 -32 94 C-32.99 94.495 -32.99 94.495 -34 95 C-34.87084811 96.55200653 -35.67412952 98.1424036 -36.4375 99.75 C-38.14676997 103.27946601 -39.91950043 106.67120069 -42 110 C-42.33 110.66 -42.66 111.32 -43 112 C-37.80393014 112.09895826 -32.60841002 112.17150993 -27.41162109 112.21972656 C-25.64427128 112.2398285 -23.87698787 112.26711472 -22.10986328 112.30175781 C-19.56786715 112.35034009 -17.02675104 112.37298226 -14.484375 112.390625 C-13.69569031 112.41127014 -12.90700562 112.43191528 -12.09442139 112.45318604 C-8.5242839 112.45464272 -6.45347448 112.34333198 -3.56347656 110.15527344 C-1.68615496 107.56736039 -0.38295188 104.88114974 1 102 C1.680625 100.989375 2.36125 99.97875 3.0625 98.9375 C5.01897061 96.19028126 5.01897061 96.19028126 5.9375 93.625 C7.6089965 89.4954204 9.89415394 84.05292303 14 82 C14.144375 81.4225 14.28875 80.845 14.4375 80.25 C15.13692161 77.45231354 16.47601727 75.43837237 18 73 C18.68177416 71.67432801 19.35191436 70.34246312 20 69 C20.33 68.34 20.66 67.68 21 67 C21.66 67 22.32 67 23 67 C24.21558461 64.13469341 25.11747273 61.48492728 25.8125 58.4375 C27.16740363 54.51541054 28.58690123 53.24545972 32 51 C32.9884096 52.55666955 33.96535082 54.12062426 34.9375 55.6875 C35.48277344 56.55761719 36.02804688 57.42773438 36.58984375 58.32421875 C37.97464101 60.95188113 38.43925741 63.11545929 39 66 C39.66 66.33 40.32 66.66 41 67 C42.10103609 68.77706084 43.13403304 70.59679085 44.125 72.4375 C44.66382813 73.42621094 45.20265625 74.41492188 45.7578125 75.43359375 C47 78 47 78 47 80 C47.66 80 48.32 80 49 80 C49.12375 80.804375 49.2475 81.60875 49.375 82.4375 C49.58125 83.283125 49.7875 84.12875 50 85 C50.66 85.33 51.32 85.66 52 86 C53.74839516 88.65756064 54.99127482 90.97382445 56 94 C56.515625 94.515625 57.03125 95.03125 57.5625 95.5625 C58.036875 96.036875 58.51125 96.51125 59 97 C59 97.66 59 98.32 59 99 C59.66 99.66 60.32 100.32 61 101 C61.309375 101.804375 61.61875 102.60875 61.9375 103.4375 C63.00692038 106.01669032 64.02541321 107.11126481 66 109 C66.33 109.99 66.66 110.98 67 112 C68.16600402 114.81784304 69.48746232 116.57276823 71.5 118.9375 C73.80625274 121.7626596 74.77435388 123.64990061 76 127 C76.6730235 128.17507733 77.36174274 129.34124782 78.0625 130.5 C79.71414076 133.30594731 80.60352564 135.72908654 81 139 C81.66 139 82.32 139 83 139 C87 147 87 147 88.0078125 149.140625 C88.97355252 151.16752119 88.97355252 151.16752119 91 153 C91.433125 154.175625 91.433125 154.175625 91.875 155.375 C92.84912254 158.09671632 92.84912254 158.09671632 95 160 C97.24977792 162.24977792 97.91640719 164.03817965 99 167 C99.515625 167.825 100.03125 168.65 100.5625 169.5 C102.03262759 172.05674363 102.58575164 174.10026145 103 177 C103.66 177 104.32 177 105 177 C105.99 179.475 105.99 179.475 107 182 C103.65910669 182.74808276 100.57093473 183.12606622 97.1496582 183.12939453 C96.2155159 183.13254669 95.2813736 183.13569885 94.31892395 183.13894653 C93.32293686 183.1369223 92.32694977 183.13489807 91.30078125 183.1328125 C89.75368721 183.13424759 89.75368721 183.13424759 88.17533875 183.13571167 C86.00092508 183.13639086 83.82650936 183.13455482 81.65209961 183.13037109 C78.31424448 183.12500281 74.97652292 183.13033334 71.63867188 183.13671875 C69.52604137 183.13605824 67.41341095 183.13477765 65.30078125 183.1328125 C64.29872147 183.13483673 63.29666168 183.13686096 62.26423645 183.13894653 C60.87720772 183.13421829 60.87720772 183.13421829 59.4621582 183.12939453 C58.6467305 183.12859894 57.8313028 183.12780334 56.99116516 183.12698364 C55 183 55 183 53 182 C53 181.34 53 180.68 53 180 C52.34 179.67 51.68 179.34 51 179 C50.375 176.9375 50.375 176.9375 50 175 C49.34 175 48.68 175 48 175 C47.87625 174.38125 47.7525 173.7625 47.625 173.125 C47.12802644 170.80879168 47.12802644 170.80879168 45 169 C44.30251417 167.68252676 43.63040043 166.35085807 43 165 C46.41751653 163.86082782 49.03487937 163.88661519 52.63671875 163.90234375 C53.93544922 163.90556641 55.23417969 163.90878906 56.57226562 163.91210938 C57.94401108 163.92046469 59.31575587 163.92892963 60.6875 163.9375 C62.07096195 163.94251665 63.45442563 163.94707927 64.83789062 163.95117188 C68.22530395 163.96297471 71.61263033 163.97943981 75 164 C74.34 163.01 73.68 162.02 73 161 C72.67 160.34 72.34 159.68 72 159 C71.34 158.01 70.68 157.02 70 156 C68.87728135 153.35830905 67.90792494 150.72377483 67 148 C66.34 147.67 65.68 147.34 65 147 C61.5266987 143.0736594 59 138.28422438 59 133 C58.01 132.67 57.02 132.34 56 132 C56 130.68 56 129.36 56 128 C55.34 127.67 54.68 127.34 54 127 C51.51211611 123.73465239 50.04555381 121.16345778 48.9375 117.1875 C48.628125 116.135625 48.31875 115.08375 48 114 C47.01 113.67 46.02 113.34 45 113 C44.67 112.01 44.34 111.02 44 110 C43.34 109.67 42.68 109.34 42 109 C41.67 108.01 41.34 107.02 41 106 C40.34 105.01 39.68 104.02 39 103 C37.67516316 100.05591813 37 98.25710538 37 95 C36.34 95 35.68 95 35 95 C34.34 93.68 33.68 92.36 33 91 C32.01 91 31.02 91 30 91 C29.34 91 28.68 91 28 91 C27.5978125 92.299375 27.5978125 92.299375 27.1875 93.625 C26.02888013 96.91791964 24.61790161 99.91127875 23 103 C22.34 103 21.68 103 21 103 C20.86464844 103.57363281 20.72929687 104.14726562 20.58984375 104.73828125 C20.01562653 106.94008107 19.33702456 109.04852802 18.5625 111.1875 C18.31628906 111.88230469 18.07007813 112.57710938 17.81640625 113.29296875 C17 115 17 115 15 116 C13.90833725 117.93330603 13.90833725 117.93330603 13 120 C12.67 120.66 12.34 121.32 12 122 C12.66 122.928125 13.32 123.85625 14 124.8125 C16 128 16 128 16 131 C16.66 131.33 17.32 131.66 18 132 C18.66666667 133.66666667 19.33333333 135.33333333 20 137 C20.66 137.33 21.32 137.66 22 138 C22.89317052 139.57163659 23.71743991 141.18296177 24.5 142.8125 C24.9228125 143.68519531 25.345625 144.55789062 25.78125 145.45703125 C26.53742357 147.03481648 27.28843155 148.61510213 28.03125 150.19921875 C28.98234731 152.1741604 28.98234731 152.1741604 31 154 C31.309375 154.825 31.61875 155.65 31.9375 156.5 C32.8583474 159.30191747 32.8583474 159.30191747 36 161 C36 161.99 36 162.98 36 164 C36.66 164.33 37.32 164.66 38 165 C38 166.32 38 167.64 38 169 C38.66 169.33 39.32 169.66 40 170 C43 175.42307692 43 175.42307692 43 178 C43.66 178 44.32 178 45 178 C45.33 179.32 45.66 180.64 46 182 C42.60682414 183.02930002 39.51326791 183.12329319 35.97625732 183.12025452 C34.74229218 183.12162918 33.50832703 183.12300385 32.23696899 183.12442017 C30.87249732 183.12088127 29.50802588 183.11724647 28.14355469 183.11352539 C26.70455935 183.11324327 25.26556386 183.11340174 23.8265686 183.1139679 C19.92195871 183.1142549 16.01737951 183.10837371 12.11277676 183.10139394 C8.03150526 183.0951444 3.95023306 183.09455533 -0.13104248 183.09336853 C-7.85868012 183.09025994 -15.58630363 183.08205291 -23.31393504 183.07201904 C-32.11192376 183.06084325 -40.90991315 183.05534375 -49.7079072 183.05032361 C-67.80527948 183.03986992 -85.90263861 183.0222796 -104 183 C-104 180 -104 180 -103 177 C-102.34 177 -101.68 177 -101 177 C-100.84144531 176.45472656 -100.68289062 175.90945313 -100.51953125 175.34765625 C-98.26975424 168.07627751 -95.43643701 161.42103634 -90 156 C-89.64830932 154.67139075 -89.31229724 153.33841672 -89 152 C-88.34 151.67 -87.68 151.34 -87 151 C-86.690625 150.05125 -86.38125 149.1025 -86.0625 148.125 C-84.99936355 144.99812809 -84.27622132 144.18137877 -82 142 C-81.71125 141.13375 -81.4225 140.2675 -81.125 139.375 C-80.568125 138.199375 -80.568125 138.199375 -80 137 C-75.67015172 135.63919054 -71.18021611 135.8853058 -66.6875 135.9375 C-65.94693359 135.94201172 -65.20636719 135.94652344 -64.44335938 135.95117188 C-62.62887101 135.96287825 -60.81442466 135.98081102 -59 136 C-59.77430228 140.6142095 -61.58136578 144.0471575 -64 148 C-64.53625 148.94875 -65.0725 149.8975 -65.625 150.875 C-67 153 -67 153 -69 154 C-69.3449145 155.33038449 -69.67516582 156.66457061 -70 158 C-70.99 159.98 -71.98 161.96 -73 164 C-44.29 164 -15.58 164 14 164 C13.01 160.535 13.01 160.535 12 157 C11.34 156.67 10.68 156.34 10 156 C9.7834375 155.01 9.7834375 155.01 9.5625 154 C9.376875 153.34 9.19125 152.68 9 152 C8.01 151.67 7.02 151.34 6 151 C5.26953125 149.15234375 5.26953125 149.15234375 4.8125 146.9375 C4.65394531 146.20402344 4.49539062 145.47054687 4.33203125 144.71484375 C4.22246094 144.14894531 4.11289063 143.58304688 4 143 C3.34 143 2.68 143 2 143 C1.505 140.525 1.505 140.525 1 138 C0.34 138 -0.32 138 -1 138 C-1.6496875 136.5459375 -1.6496875 136.5459375 -2.3125 135.0625 C-3.7014861 131.72268235 -3.7014861 131.72268235 -7 131 C-9.16213393 130.91047669 -11.32698411 130.8824146 -13.4909668 130.88647461 C-14.1448941 130.88632858 -14.79882141 130.88618256 -15.4725647 130.8860321 C-17.63148326 130.88672812 -19.79031528 130.89450592 -21.94921875 130.90234375 C-23.44708713 130.90420904 -24.94495611 130.90563242 -26.44282532 130.90663147 C-30.38345019 130.91044793 -34.32403814 130.9202708 -38.26464844 130.93133545 C-42.28645325 130.94156828 -46.30826404 130.9461331 -50.33007812 130.95117188 C-58.22006901 130.96189384 -66.11002991 130.97895983 -74 131 C-74 127.13304322 -72.58090029 124.4911548 -71 121 C-70.34 121 -69.68 121 -69 121 C-68.896875 120.443125 -68.79375 119.88625 -68.6875 119.3125 C-67.8662204 116.55001407 -66.49810275 114.45688852 -65 112 C-64.505 110.700625 -64.505 110.700625 -64 109.375 C-63 107 -63 107 -61.5625 105.625 C-59.7234668 103.90495863 -59.7234668 103.90495863 -58.5625 100.625 C-57.06308436 97.14635573 -55.4102848 94.87679154 -53 92 C-52.30604538 90.68066335 -51.64177267 89.3454925 -51 88 C-49.66666667 85.33333333 -48.33333333 82.66666667 -47 80 C-46.34 80 -45.68 80 -45 80 C-44.67 78.02 -44.34 76.04 -44 74 C-43.34 74 -42.68 74 -42 74 C-41.731875 73.13375 -41.46375 72.2675 -41.1875 71.375 C-40.01763052 68.05010779 -38.7719556 65.04776362 -37 62 C-36.01 61.67 -35.02 61.34 -34 61 C-33.87625 60.05125 -33.7525 59.1025 -33.625 58.125 C-33 55 -33 55 -31 53 C-30.67 52.01 -30.34 51.02 -30 50 C-29.34 50 -28.68 50 -28 50 C-27.5978125 48.39125 -27.5978125 48.39125 -27.1875 46.75 C-26.09722048 43.30701205 -25.1966676 41.72386782 -23 39 C-22.484375 37.948125 -21.96875 36.89625 -21.4375 35.8125 C-20 33 -20 33 -18 32 C-17.5359375 30.329375 -17.5359375 30.329375 -17.0625 28.625 C-16.02931404 25.10001262 -15.54191263 24.32087675 -13 22 C-12.28552357 19.89667109 -12.28552357 19.89667109 -12 18 C-11.34 18 -10.68 18 -10 18 C-9.814375 17.13375 -9.814375 17.13375 -9.625 16.25 C-8.67461068 12.82859845 -7.51844432 10.51844432 -5 8 C-4.34 7.67 -3.68 7.34 -3 7 C-2.28272222 5.35448038 -1.61674772 3.68577711 -1 2 C-0.67 1.34 -0.34 0.68 0 0 Z " fill="#808080" transform="translate(179,89)"/>
<path d="" fill="#808080" transform="translate(0,0)"/>
<path d="" fill="#FFFFFF" transform="translate(0,0)"/>
<path d="" fill="#FFFFFF" transform="translate(0,0)"/>
<path d="" fill="#FFFFFF" transform="translate(0,0)"/>
<path d="" fill="#FFFFFF" transform="translate(0,0)"/>
<path d="" fill="#FFFFFF" transform="translate(0,0)"/>
<path d="" fill="#FFFFFF" transform="translate(0,0)"/>
<path d="" fill="#FFFFFF" transform="translate(0,0)"/>
<path d="" fill="#FFFFFF" transform="translate(0,0)"/>
<path d="" fill="#FFFFFF" transform="translate(0,0)"/>
<path d="" fill="#FFFFFF" transform="translate(0,0)"/>
<path d="" fill="#FFFFFF" transform="translate(0,0)"/>
<path d="" fill="#FFFFFF" transform="translate(0,0)"/>
<path d="" fill="#FFFFFF" transform="translate(0,0)"/>
<path d="" fill="#FFFFFF" transform="translate(0,0)"/>
<path d="" fill="#FFFFFF" transform="translate(0,0)"/>
<path d="" fill="#FFFFFF" transform="translate(0,0)"/>
<path d="" fill="#FFFFFF" transform="translate(0,0)"/>
<path d="" fill="#FFFFFF" transform="translate(0,0)"/>
<path d="" fill="#FFFFFF" transform="translate(0,0)"/>
<path d="" fill="#FFFFFF" transform="translate(0,0)"/>
<path d="" fill="#FFFFFF" transform="translate(0,0)"/>
<path d="" fill="#FFFFFF" transform="translate(0,0)"/>
<path d="" fill="#FFFFFF" transform="translate(0,0)"/>
<path d="" fill="#FFFFFF" transform="translate(0,0)"/>
<path d="" fill="#FFFFFF" transform="translate(0,0)"/>
<path d="" fill="#FFFFFF" transform="translate(0,0)"/>
<path d="" fill="#FFFFFF" transform="translate(0,0)"/>
<path d="" fill="#FFFFFF" transform="translate(0,0)"/>
<path d="" fill="#808080" transform="translate(0,0)"/>
<path d="" fill="#FFFFFF" transform="translate(0,0)"/>
<path d="" fill="#808080" transform="translate(0,0)"/>
<path d="" fill="#808080" transform="translate(0,0)"/>
<path d="" fill="#808080" transform="translate(0,0)"/>
<path d="" fill="#808080" transform="translate(0,0)"/>
<path d="" fill="#FFFFFF" transform="translate(0,0)"/>
<path d="" fill="#808080" transform="translate(0,0)"/>
<path d="" fill="#808080" transform="translate(0,0)"/>
<path d="" fill="#808080" transform="translate(0,0)"/>
<path d="" fill="#808080" transform="translate(0,0)"/>
<path d="" fill="#FFFFFF" transform="translate(0,0)"/>
<path d="" fill="#FFFFFF" transform="translate(0,0)"/>
<path d="" fill="#808080" transform="translate(0,0)"/>
<path d="" fill="#FFFFFF" transform="translate(0,0)"/>
<path d="" fill="#808080" transform="translate(0,0)"/>
<path d="" fill="#808080" transform="translate(0,0)"/>
<path d="" fill="#808080" transform="translate(0,0)"/>
<path d="" fill="#FFFFFF" transform="translate(0,0)"/>
<path d="" fill="#808080" transform="translate(0,0)"/>
<path d="" fill="#808080" transform="translate(0,0)"/>
<path d="" fill="#FFFFFF" transform="translate(0,0)"/>
<path d="" fill="#808080" transform="translate(0,0)"/>
<path d="" fill="#808080" transform="translate(0,0)"/>
<path d="" fill="#808080" transform="translate(0,0)"/>
<path d="" fill="#808080" transform="translate(0,0)"/>
<path d="" fill="#808080" transform="translate(0,0)"/>
<path d="" fill="#808080" transform="translate(0,0)"/>
<path d="" fill="#808080" transform="translate(0,0)"/>
<path d="" fill="#808080" transform="translate(0,0)"/>
<path d="" fill="#FFFFFF" transform="translate(0,0)"/>
<path d="" fill="#808080" transform="translate(0,0)"/>
<path d="" fill="#FFFFFF" transform="translate(0,0)"/>
<path d="" fill="#808080" transform="translate(0,0)"/>
<path d="" fill="#808080" transform="translate(0,0)"/>
<path d="" fill="#808080" transform="translate(0,0)"/>
<path d="" fill="#808080" transform="translate(0,0)"/>
<path d="" fill="#FFFFFF" transform="translate(0,0)"/>
<path d="" fill="#FFFFFF" transform="translate(0,0)"/>
<path d="" fill="#FFFFFF" transform="translate(0,0)"/>
<path d="" fill="#808080" transform="translate(0,0)"/>
<path d="" fill="#FFFFFF" transform="translate(0,0)"/>
<path d="" fill="#808080" transform="translate(0,0)"/>
<path d="" fill="#808080" transform="translate(0,0)"/>
<path d="" fill="#FFFFFF" transform="translate(0,0)"/>
<path d="" fill="#808080" transform="translate(0,0)"/>
<path d="" fill="#808080" transform="translate(0,0)"/>
<path d="" fill="#FFFFFF" transform="translate(0,0)"/>
<path d="" fill="#808080" transform="translate(0,0)"/>
<path d="" fill="#FFFFFF" transform="translate(0,0)"/>
<path d="" fill="#FFFFFF" transform="translate(0,0)"/>
<path d="" fill="#808080" transform="translate(0,0)"/>
<path d="" fill="#808080" transform="translate(0,0)"/>
<path d="" fill="#FFFFFF" transform="translate(0,0)"/>
<path d="" fill="#808080" transform="translate(0,0)"/>
<path d="" fill="#808080" transform="translate(0,0)"/>
<path d="" fill="#FFFFFF" transform="translate(0,0)"/>
<path d="" fill="#FFFFFF" transform="translate(0,0)"/>
<path d="" fill="#808080" transform="translate(0,0)"/>
<path d="" fill="#FFFFFF" transform="translate(0,0)"/>
<path d="" fill="#FFFFFF" transform="translate(0,0)"/>
<path d="" fill="#808080" transform="translate(0,0)"/>
<path d="" fill="#FFFFFF" transform="translate(0,0)"/>
<path d="" fill="#808080" transform="translate(0,0)"/>
<path d="" fill="#808080" transform="translate(0,0)"/>
<path d="" fill="#FFFFFF" transform="translate(0,0)"/>
<path d="" fill="#808080" transform="translate(0,0)"/>
<path d="" fill="#808080" transform="translate(0,0)"/>
<path d="" fill="#808080" transform="translate(0,0)"/>
<path d="" fill="#808080" transform="translate(0,0)"/>
<path d="" fill="#FFFFFF" transform="translate(0,0)"/>
<path d="" fill="#808080" transform="translate(0,0)"/>
<path d="" fill="#808080" transform="translate(0,0)"/>
<path d="" fill="#808080" transform="translate(0,0)"/>
<path d="" fill="#FFFFFF" transform="translate(0,0)"/>
<path d="" fill="#FFFFFF" transform="translate(0,0)"/>
<path d="" fill="#FFFFFF" transform="translate(0,0)"/>
<path d="" fill="#FFFFFF" transform="translate(0,0)"/>
<path d="" fill="#FFFFFF" transform="translate(0,0)"/>
<path d="" fill="#808080" transform="translate(0,0)"/>
<path d="" fill="#808080" transform="translate(0,0)"/>
<path d="" fill="#FFFFFF" transform="translate(0,0)"/>
<path d="" fill="#FFFFFF" transform="translate(0,0)"/>
<path d="" fill="#FFFFFF" transform="translate(0,0)"/>
<path d="" fill="#FFFFFF" transform="translate(0,0)"/>
<path d="" fill="#FFFFFF" transform="translate(0,0)"/>
<path d="" fill="#FFFFFF" transform="translate(0,0)"/>
<path d="" fill="#FFFFFF" transform="translate(0,0)"/>
<path d="" fill="#FFFFFF" transform="translate(0,0)"/>
<path d="" fill="#FFFFFF" transform="translate(0,0)"/>
<path d="" fill="#FFFFFF" transform="translate(0,0)"/>
<path d="" fill="#FFFFFF" transform="translate(0,0)"/>
<path d="" fill="#FFFFFF" transform="translate(0,0)"/>
<path d="" fill="#FFFFFF" transform="translate(0,0)"/>
<path d="" fill="#FFFFFF" transform="translate(0,0)"/>
<path d="" fill="#FFFFFF" transform="translate(0,0)"/>
<path d="" fill="#FFFFFF" transform="translate(0,0)"/>
<path d="" fill="#FEFFFF" transform="translate(0,0)"/>
<path d="" fill="#FFFFFF" transform="translate(0,0)"/>
<path d="" fill="#FFFFFF" transform="translate(0,0)"/>
<path d="" fill="#FFFFFF" transform="translate(0,0)"/>
<path d="" fill="#FFFFFF" transform="translate(0,0)"/>
<path d="" fill="#FFFFFF" transform="translate(0,0)"/>
<path d="" fill="#FFFFFF" transform="translate(0,0)"/>
<path d="" fill="#FFFFFF" transform="translate(0,0)"/>
<path d="" fill="#FFFFFF" transform="translate(0,0)"/>
<path d="" fill="#FFFFFF" transform="translate(0,0)"/>
<path d="" fill="#FFFFFF" transform="translate(0,0)"/>
<path d="" fill="#FFFFFF" transform="translate(0,0)"/>
<path d="" fill="#FFFFFF" transform="translate(0,0)"/>
<path d="" fill="#FFFFFF" transform="translate(0,0)"/>
<path d="" fill="#FFFFFF" transform="translate(0,0)"/>
<path d="" fill="#FFFFFF" transform="translate(0,0)"/>
<path d="" fill="#FFFFFF" transform="translate(0,0)"/>
<path d="" fill="#FFFFFF" transform="translate(0,0)"/>
<path d="" fill="#FFFFFF" transform="translate(0,0)"/>
</svg>
